STARTFONT 2.1
FONT -WRI-Mathematica4Mono-Bold-R-Normal--32-320-75-75-M-260-Adobe-FontSpecific
SIZE 32 75 75
FONTBOUNDINGBOX 87 35 -2 -9
STARTPROPERTIES 16
FOUNDRY "WRI"
FAMILY_NAME "Mathematica4Mono"
WEIGHT_NAME "Bold"
SLANT "R"
SETWIDTH_NAME "Normal"
PIXEL_SIZE 32
POINT_SIZE 320
RESOLUTION_X 75
RESOLUTION_Y 75
SPACING "M"
AVERAGE_WIDTH 260
CHARSET_REGISTRY "Adobe"
CHARSET_ENCODING "FontSpecific"
FONT_DESCENT 9
FONT_ASCENT 26
DEFAULT_CHAR 32
ENDPROPERTIES
CHARS 224
STARTCHAR space
ENCODING 32
SWIDTH 263 0
DWIDTH 8 0
BBX 0 0 0 0
BITMAP
ENDCHAR
STARTCHAR RArrowBar
ENCODING 33
SWIDTH 807 0
DWIDTH 26 0
BBX 24 14 1 0
BITMAP
000200
000f07
000787
0003c7
0001e7
fffff7
ffffff
fffff7
0001e7
0003c7
000787
000f07
000707
000200
ENDCHAR
STARTCHAR LTackArrow
ENCODING 34
SWIDTH 807 0
DWIDTH 26 0
BBX 24 14 1 0
BITMAP
010000
038007
0f0007
1e0007
3c0007
7fffff
ffffff
7fffff
3c0007
1e0007
0f0007
078007
030007
010000
ENDCHAR
STARTCHAR RTackArrow
ENCODING 35
SWIDTH 807 0
DWIDTH 26 0
BBX 24 14 1 0
BITMAP
000080
e001c0
e000f0
e00078
e0003c
fffffe
ffffff
fffffe
e0003c
e00078
e000f0
e001e0
e000c0
000080
ENDCHAR
STARTCHAR UpArrowBar
ENCODING 36
SWIDTH 600 0
DWIDTH 19 0
BBX 14 23 3 0
BITMAP
fff8
fff8
fff8
0200
0700
0f80
1fc0
3fe0
7ff0
f77c
e738
4708
0700
0700
0700
0700
0700
0700
0700
0700
0700
0700
0700
ENDCHAR
STARTCHAR DownArrowBar
ENCODING 37
SWIDTH 600 0
DWIDTH 19 0
BBX 14 23 3 0
BITMAP
0700
0700
0700
0700
0700
0700
0700
0700
0700
0700
0700
4708
e738
f77c
7ff0
3fe0
1fc0
0f80
0700
0200
fff8
fff8
fff8
ENDCHAR
STARTCHAR UpTackArrow
ENCODING 38
SWIDTH 600 0
DWIDTH 19 0
BBX 14 23 3 0
BITMAP
0200
0700
0f80
1fc0
3fe0
7ff0
f77c
e738
4708
0700
0700
0700
0700
0700
0700
0700
0700
0700
0700
0700
fff8
fff8
fff8
ENDCHAR
STARTCHAR DownTackArrow
ENCODING 39
SWIDTH 600 0
DWIDTH 19 0
BBX 14 23 3 0
BITMAP
fff8
fff8
fff8
0700
0700
0700
0700
0700
0700
0700
0700
0700
0700
0700
4708
e738
f77c
7ff0
3fe0
1fc0
0f80
0700
0200
ENDCHAR
STARTCHAR LVectorBar
ENCODING 40
SWIDTH 807 0
DWIDTH 26 0
BBX 24 13 1 1
BITMAP
001000
e03800
e07800
e0e000
e1c000
e3ffff
e7ffff
ffffff
e00000
e00000
e00000
e00000
e00000
ENDCHAR
STARTCHAR RVectorBar
ENCODING 41
SWIDTH 807 0
DWIDTH 26 0
BBX 24 13 1 1
BITMAP
000800
001c07
001e07
000707
000387
ffffc7
ffffe7
ffffff
000007
000007
000007
000007
000007
ENDCHAR
STARTCHAR DownLVectorBar
ENCODING 42
SWIDTH 807 0
DWIDTH 26 0
BBX 24 13 1 0
BITMAP
e00000
e00000
e00000
e00000
e00000
ffffff
e7ffff
e3ffff
e1c000
e0e000
e07800
e03800
001000
ENDCHAR
STARTCHAR DownRVectorBar
ENCODING 43
SWIDTH 807 0
DWIDTH 26 0
BBX 24 13 1 0
BITMAP
000007
000007
000007
000007
000007
ffffff
ffffe7
ffffc7
000387
000707
001e07
001c07
000800
ENDCHAR
STARTCHAR LTackVector
ENCODING 44
SWIDTH 807 0
DWIDTH 26 0
BBX 23 13 2 1
BITMAP
010000
03800e
07800e
0f000e
1e000e
3ffffe
7ffffe
fffffe
00000e
00000e
00000e
00000e
00000e
ENDCHAR
STARTCHAR RTackVector
ENCODING 45
SWIDTH 807 0
DWIDTH 26 0
BBX 23 13 1 1
BITMAP
000100
e00380
e003c0
e001e0
e000f0
fffff8
fffffc
fffffe
e00000
e00000
e00000
e00000
e00000
ENDCHAR
STARTCHAR DownLTackVector
ENCODING 46
SWIDTH 807 0
DWIDTH 26 0
BBX 23 13 2 0
BITMAP
00000e
00000e
00000e
00000e
00000e
fffffe
7ffffe
3ffffe
1e000e
0f000e
07800e
03800e
010000
ENDCHAR
STARTCHAR DownRTackVector
ENCODING 47
SWIDTH 807 0
DWIDTH 26 0
BBX 23 13 1 0
BITMAP
e00000
e00000
e00000
e00000
e00000
fffffe
fffffc
fffff8
e000f0
e001e0
e003c0
e00380
000100
ENDCHAR
STARTCHAR LVector
ENCODING 48
SWIDTH 720 0
DWIDTH 23 0
BBX 21 8 1 6
BITMAP
008000
01c000
03c000
078000
0f0000
1ffff8
3ffff8
fffff8
ENDCHAR
STARTCHAR RVector
ENCODING 49
SWIDTH 720 0
DWIDTH 23 0
BBX 21 8 1 6
BITMAP
000800
001c00
001e00
000f00
000780
ffffc0
ffffe0
fffff8
ENDCHAR
STARTCHAR LRVector
ENCODING 50
SWIDTH 790 0
DWIDTH 25 0
BBX 23 8 1 6
BITMAP
008200
01c700
03c780
0783c0
0e00e0
1ffff0
3ffff8
fffffe
ENDCHAR
STARTCHAR DownLVector
ENCODING 51
SWIDTH 720 0
DWIDTH 23 0
BBX 21 8 1 0
BITMAP
fffff8
3ffff8
1ffff8
0f0000
078000
03c000
01c000
008000
ENDCHAR
STARTCHAR DownRVector
ENCODING 52
SWIDTH 720 0
DWIDTH 23 0
BBX 21 8 1 0
BITMAP
fffff8
ffffe0
ffffc0
000780
000f00
001e00
001c00
000800
ENDCHAR
STARTCHAR DownLRVector
ENCODING 53
SWIDTH 790 0
DWIDTH 25 0
BBX 23 8 1 0
BITMAP
fffffe
3ffff8
1ffff0
0e00e0
0783c0
03c780
01c700
008200
ENDCHAR
STARTCHAR LUpDownVector
ENCODING 54
SWIDTH 600 0
DWIDTH 19 0
BBX 8 22 3 0
BITMAP
01
03
07
0f
1f
3f
7f
f7
67
47
07
07
47
67
f7
7f
3f
1f
0f
07
03
01
ENDCHAR
STARTCHAR RUpDownVector
ENCODING 55
SWIDTH 600 0
DWIDTH 19 0
BBX 9 22 8 0
BITMAP
8000
c000
e000
f000
f800
fc00
fe00
ef80
e700
e200
e000
e000
e200
e700
ef80
fe00
fc00
f800
f000
e000
c000
8000
ENDCHAR
STARTCHAR LUpVectorBar
ENCODING 56
SWIDTH 600 0
DWIDTH 19 0
BBX 13 23 3 0
BITMAP
fff8
fff8
fff8
0100
0300
0700
0f00
1f00
3f00
7f00
f700
e700
4700
0700
0700
0700
0700
0700
0700
0700
0700
0700
0700
ENDCHAR
STARTCHAR LDownVectorBar
ENCODING 57
SWIDTH 600 0
DWIDTH 19 0
BBX 13 23 3 0
BITMAP
0700
0700
0700
0700
0700
0700
0700
0700
0700
0700
4700
e700
f700
7f00
3f00
1f00
0f00
0700
0300
0100
fff8
fff8
fff8
ENDCHAR
STARTCHAR RUpVectorBar
ENCODING 58
SWIDTH 600 0
DWIDTH 19 0
BBX 13 23 3 0
BITMAP
fff8
fff8
fff8
0400
0600
0700
0780
07c0
07e0
07f0
0778
0738
0710
0700
0700
0700
0700
0700
0700
0700
0700
0700
0700
ENDCHAR
STARTCHAR RDownVectorBar
ENCODING 59
SWIDTH 600 0
DWIDTH 19 0
BBX 13 23 3 0
BITMAP
0700
0700
0700
0700
0700
0700
0700
0700
0700
0700
0710
0738
0778
07f0
07e0
07c0
0780
0700
0600
0400
fff8
fff8
fff8
ENDCHAR
STARTCHAR LUpTackVector
ENCODING 60
SWIDTH 600 0
DWIDTH 19 0
BBX 13 23 3 0
BITMAP
0100
0300
0700
0f00
1f00
3f00
7f00
f700
e700
4700
0700
0700
0700
0700
0700
0700
0700
0700
0700
0700
fff8
fff8
fff8
ENDCHAR
STARTCHAR LDownTackVector
ENCODING 61
SWIDTH 600 0
DWIDTH 19 0
BBX 13 23 3 0
BITMAP
fff8
fff8
fff8
0700
0700
0700
0700
0700
0700
0700
0700
0700
0700
4700
e700
f700
7f00
3f00
1f00
0f00
0700
0300
0100
ENDCHAR
STARTCHAR RUpTackVector
ENCODING 62
SWIDTH 600 0
DWIDTH 19 0
BBX 13 23 3 0
BITMAP
0400
0600
0700
0780
07c0
07e0
07f0
0778
0738
0710
0700
0700
0700
0700
0700
0700
0700
0700
0700
0700
fff8
fff8
fff8
ENDCHAR
STARTCHAR RDownTackVector
ENCODING 63
SWIDTH 600 0
DWIDTH 19 0
BBX 13 23 3 0
BITMAP
fff8
fff8
fff8
0700
0700
0700
0700
0700
0700
0700
0700
0700
0700
0710
0738
0778
07f0
07e0
07c0
0780
0700
0600
0400
ENDCHAR
STARTCHAR LUpVector
ENCODING 64
SWIDTH 600 0
DWIDTH 19 0
BBX 8 20 3 0
BITMAP
01
03
07
0f
1f
3f
7f
f7
e7
47
07
07
07
07
07
07
07
07
07
07
ENDCHAR
STARTCHAR ExtensUp1
ENCODING 65
SWIDTH 600 0
DWIDTH 19 0
BBX 3 7 8 0
BITMAP
e0
e0
e0
e0
e0
e0
e0
ENDCHAR
STARTCHAR LDownVector
ENCODING 66
SWIDTH 600 0
DWIDTH 19 0
BBX 8 20 3 0
BITMAP
07
07
07
07
07
07
07
07
07
07
47
e7
f7
7f
3f
1f
0f
07
03
01
ENDCHAR
STARTCHAR RUpVector
ENCODING 67
SWIDTH 600 0
DWIDTH 19 0
BBX 9 20 8 0
BITMAP
8000
c000
e000
f000
f800
fc00
fe00
ef00
e780
e200
e000
e000
e000
e000
e000
e000
e000
e000
e000
e000
ENDCHAR
STARTCHAR ExtensUp2
ENCODING 68
SWIDTH 600 0
DWIDTH 19 0
BBX 3 7 8 0
BITMAP
e0
e0
e0
e0
e0
e0
e0
ENDCHAR
STARTCHAR RDownVector
ENCODING 69
SWIDTH 600 0
DWIDTH 19 0
BBX 9 20 8 0
BITMAP
e000
e000
e000
e000
e000
e000
e000
e000
e000
e000
e200
e780
ef00
fe00
fc00
f800
f000
e000
c000
8000
ENDCHAR
STARTCHAR Equilibrium
ENCODING 70
SWIDTH 720 0
DWIDTH 23 0
BBX 21 18 1 -2
BITMAP
000400
000e00
000f00
000780
0003c0
7fffe0
7fffe0
7ffff8
000000
000000
fffff0
3ffff0
3ffff0
1e0000
0f0000
078000
038000
010000
ENDCHAR
STARTCHAR RvrsEquilibrium
ENCODING 71
SWIDTH 720 0
DWIDTH 23 0
BBX 21 18 1 -2
BITMAP
010000
038000
078000
0f0000
1e0000
3ffff0
3ffff0
fffff0
000000
000000
7ffff8
7fffe0
7fffe0
0003c0
000780
000f00
000e00
000400
ENDCHAR
STARTCHAR EquilbrmHeadL
ENCODING 72
SWIDTH 323 0
DWIDTH 10 0
BBX 9 13 1 -2
BITMAP
ff80
ff80
ff80
0000
0000
ff80
7f80
3f80
1e00
0f00
0780
0300
0100
ENDCHAR
STARTCHAR EquilbrmheadR
ENCODING 73
SWIDTH 323 0
DWIDTH 10 0
BBX 9 13 0 3
BITMAP
2000
6000
f000
7800
3c00
fe00
ff00
ff80
0000
0000
ff80
ff80
ff80
ENDCHAR
STARTCHAR RvrsEquilbrmHeadL
ENCODING 74
SWIDTH 323 0
DWIDTH 10 0
BBX 9 13 1 3
BITMAP
0100
0300
0780
0f00
1e00
3f80
7f80
ff80
0000
0000
ff80
ff80
ff80
ENDCHAR
STARTCHAR RvrsEquilbrmHeadR
ENCODING 75
SWIDTH 323 0
DWIDTH 10 0
BBX 9 13 0 -2
BITMAP
ff80
ff80
ff80
0000
0000
ff80
ff00
fe00
3c00
7800
f000
6000
2000
ENDCHAR
STARTCHAR UpEquilibrium
ENCODING 76
SWIDTH 600 0
DWIDTH 19 0
BBX 17 20 1 0
BITMAP
023800
063800
0e3800
1e3800
3e3800
7e3800
fe3800
6e3800
2e3800
0e3800
0e3800
0e3900
0e3b80
0e3f80
0e3f00
0e3e00
0e3c00
0e3800
0e3000
0e2000
ENDCHAR
STARTCHAR RvrsUpEquilibrium
ENCODING 77
SWIDTH 600 0
DWIDTH 19 0
BBX 17 20 1 0
BITMAP
0e2000
0e3000
0e3800
0e3c00
0e3e00
0e3f00
0e3f80
0e3b80
0e3900
0e3800
0e3800
2e3800
6e3800
fe3800
7e3800
3e3800
1e3800
0e3800
063800
023800
ENDCHAR
STARTCHAR LArrowHookUp
ENCODING 78
SWIDTH 720 0
DWIDTH 23 0
BBX 21 14 1 0
BITMAP
0103e0
0303f0
078078
0e0038
3c0078
7ffff8
fffff0
7fffe0
3c0000
1e0000
0f0000
078000
030000
020000
ENDCHAR
STARTCHAR RArrowHookUp
ENCODING 79
SWIDTH 720 0
DWIDTH 23 0
BBX 21 14 1 0
BITMAP
3e0200
7e0600
f00f00
e00380
f001e0
fffff0
7ffff8
3ffff0
0001e0
0003c0
000780
000f00
000600
000200
ENDCHAR
STARTCHAR LArrow
ENCODING 80
SWIDTH 720 0
DWIDTH 23 0
BBX 21 14 1 0
BITMAP
030000
078000
0f0000
1e0000
3c0000
7ffff8
fffff8
7ffff8
3c0000
1e0000
0f0000
078000
030000
010000
ENDCHAR
STARTCHAR Extens
ENCODING 81
SWIDTH 200 0
DWIDTH 6 0
BBX 6 3 0 6
BITMAP
fc
fc
fc
ENDCHAR
STARTCHAR LeftTackBase
ENCODING 82
SWIDTH 236 0
DWIDTH 8 0
BBX 6 13 0 1
BITMAP
1c
1c
1c
1c
1c
fc
fc
fc
1c
1c
1c
1c
1c
ENDCHAR
STARTCHAR RightTackBase
ENCODING 83
SWIDTH 236 0
DWIDTH 8 0
BBX 6 13 0 1
BITMAP
e0
e0
e0
e0
e0
fc
fc
fc
e0
e0
e0
e0
e0
ENDCHAR
STARTCHAR RArrow
ENCODING 84
SWIDTH 720 0
DWIDTH 23 0
BBX 21 14 1 0
BITMAP
000600
000f00
000780
0003c0
0001e0
fffff0
fffff8
fffff0
0001e0
0003c0
000780
000f00
000600
000200
ENDCHAR
STARTCHAR RUpVector2
ENCODING 85
SWIDTH 600 0
DWIDTH 19 0
BBX 9 20 8 0
BITMAP
8000
c000
e000
f000
f800
fc00
fe00
ef00
e780
e200
e000
e000
e000
e000
e000
e000
e000
e000
e000
e000
ENDCHAR
STARTCHAR RArrowLArrow
ENCODING 86
SWIDTH 720 0
DWIDTH 23 0
BBX 21 16 1 -1
BITMAP
000100
000380
0003c0
0001e0
7ffff0
7ffff8
7fffe0
0e01c0
1c0780
7ffff0
fffff0
7ffff0
3c0000
1e0000
0e0000
040000
ENDCHAR
STARTCHAR LArrowRArrow
ENCODING 87
SWIDTH 720 0
DWIDTH 23 0
BBX 21 16 1 -1
BITMAP
040000
0e0000
1e0000
3c0000
7ffff0
fffff0
3ffff0
1c0380
0f01c0
7ffff0
7ffff8
7ffff0
0001e0
0003c0
000380
000100
ENDCHAR
STARTCHAR RArrowLArrowHeadL
ENCODING 88
SWIDTH 285 0
DWIDTH 9 0
BBX 8 12 1 -1
BITMAP
ff
ff
ff
0e
3c
7f
ff
7f
3c
1e
0e
04
ENDCHAR
STARTCHAR RArrowLArrowHeadR
ENCODING 89
SWIDTH 285 0
DWIDTH 9 0
BBX 8 12 0 3
BITMAP
20
70
78
3c
fe
ff
fe
3c
70
ff
ff
ff
ENDCHAR
STARTCHAR LArrowRArrowHeadL
ENCODING 90
SWIDTH 285 0
DWIDTH 9 0
BBX 8 12 1 3
BITMAP
04
0e
1e
3c
7f
ff
7f
3c
0e
ff
ff
ff
ENDCHAR
STARTCHAR LArrowRArrowHeadR
ENCODING 91
SWIDTH 285 0
DWIDTH 9 0
BBX 8 12 0 -1
BITMAP
ff
ff
ff
70
3c
fe
ff
fe
3c
78
70
20
ENDCHAR
STARTCHAR UpArrowDownArrow
ENCODING 92
SWIDTH 600 0
DWIDTH 19 0
BBX 17 20 1 0
BITMAP
043800
0e3800
1f3800
3fb800
7ff800
fff800
6eb800
0e3800
0e3800
0e3800
0e3800
0e3800
0e3800
0fbb00
0fff80
0fff00
0efe00
0e7c00
0e3800
0e1000
ENDCHAR
STARTCHAR DownArrowUpArrow
ENCODING 93
SWIDTH 600 0
DWIDTH 19 0
BBX 17 20 1 0
BITMAP
0e1000
0e3800
0e7c00
0efe00
0fff00
0fff80
0fbb00
0e3800
0e3800
0e3800
0e3800
0e3800
0e3800
6eb800
fff800
7ff800
3fb800
1f3800
0e3800
043800
ENDCHAR
STARTCHAR VertExt1
ENCODING 94
SWIDTH 600 0
DWIDTH 19 0
BBX 3 7 8 0
BITMAP
e0
e0
e0
e0
e0
e0
e0
ENDCHAR
STARTCHAR HorizExt1
ENCODING 95
SWIDTH 200 0
DWIDTH 6 0
BBX 6 3 0 0
BITMAP
fc
fc
fc
ENDCHAR
STARTCHAR UpArrow
ENCODING 96
SWIDTH 600 0
DWIDTH 19 0
BBX 14 20 3 0
BITMAP
0200
0700
0f80
1fc0
3fe0
7ff0
f77c
6738
2708
0700
0700
0700
0700
0700
0700
0700
0700
0700
0700
0700
ENDCHAR
STARTCHAR UpTackBase
ENCODING 97
SWIDTH 600 0
DWIDTH 19 0
BBX 13 6 3 0
BITMAP
0700
0700
0700
fff8
fff8
fff8
ENDCHAR
STARTCHAR DownTackBase
ENCODING 98
SWIDTH 600 0
DWIDTH 19 0
BBX 13 6 3 0
BITMAP
fff8
fff8
fff8
0700
0700
0700
ENDCHAR
STARTCHAR DownArrow
ENCODING 99
SWIDTH 600 0
DWIDTH 19 0
BBX 14 20 3 0
BITMAP
0700
0700
0700
0700
0700
0700
0700
0700
0700
0700
0700
2708
6738
f77c
7ff0
3fe0
1fc0
0f80
0700
0200
ENDCHAR
STARTCHAR RDownVector2
ENCODING 100
SWIDTH 600 0
DWIDTH 19 0
BBX 9 20 8 0
BITMAP
e000
e000
e000
e000
e000
e000
e000
e000
e000
e000
e200
e780
ef00
fe00
fc00
f800
f000
e000
c000
8000
ENDCHAR
STARTCHAR UpEquilbrmHeadBttm
ENCODING 101
SWIDTH 600 0
DWIDTH 19 0
BBX 13 10 5 0
BITMAP
e380
e390
e3b0
e3f8
e3f0
e3e0
e3c0
e380
e300
e200
ENDCHAR
STARTCHAR DblUpExtens2
ENCODING 102
SWIDTH 600 0
DWIDTH 19 0
BBX 9 7 5 0
BITMAP
e380
e380
e380
e380
e380
e380
e380
ENDCHAR
STARTCHAR RvrsUpEquilbrmHeadTop
ENCODING 103
SWIDTH 600 0
DWIDTH 19 0
BBX 13 11 5 0
BITMAP
0200
e200
e300
e380
e3c0
e3e0
e3f0
e3f8
e3b0
e390
e380
ENDCHAR
STARTCHAR UpEquilbrmHeadTop
ENCODING 104
SWIDTH 600 0
DWIDTH 19 0
BBX 13 11 1 0
BITMAP
0100
0238
0638
0e38
1e38
3e38
7e38
fe38
6e38
2e38
0e38
ENDCHAR
STARTCHAR DblUpExtens1
ENCODING 105
SWIDTH 600 0
DWIDTH 19 0
BBX 9 7 5 0
BITMAP
e380
e380
e380
e380
e380
e380
e380
ENDCHAR
STARTCHAR RvrsUpEquilibrmHdBttm
ENCODING 106
SWIDTH 600 0
DWIDTH 19 0
BBX 13 10 1 0
BITMAP
0e38
2e38
6e38
fe38
7e38
3e38
1e38
0e38
0638
0238
ENDCHAR
STARTCHAR UpArrwDwnArrwBttm
ENCODING 107
SWIDTH 600 0
DWIDTH 19 0
BBX 13 8 5 0
BITMAP
e380
f390
fbb0
fff8
efe0
e7c0
e380
e100
ENDCHAR
STARTCHAR DwnArrwUpArrwTop
ENCODING 108
SWIDTH 600 0
DWIDTH 19 0
BBX 13 9 5 0
BITMAP
0100
e380
e7c0
efe0
fff0
fff8
fbb0
f390
e380
ENDCHAR
STARTCHAR UpArrwDwnArrwTop
ENCODING 109
SWIDTH 600 0
DWIDTH 19 0
BBX 13 9 1 0
BITMAP
0400
0e38
1f38
3fb8
7ff8
fff8
6ef8
2e78
0e38
ENDCHAR
STARTCHAR DwnArrwUpArrwBttm
ENCODING 110
SWIDTH 600 0
DWIDTH 19 0
BBX 13 8 1 0
BITMAP
0e38
2e78
6ef8
fff8
3fb8
1f38
0e38
0438
ENDCHAR
STARTCHAR DblExtens
ENCODING 111
SWIDTH 200 0
DWIDTH 6 0
BBX 6 8 0 3
BITMAP
fc
fc
fc
00
00
fc
fc
fc
ENDCHAR
STARTCHAR OverBracket1
ENCODING 112
SWIDTH 838 0
DWIDTH 27 0
BBX 27 6 0 0
BITMAP
ffffffe0
ffffffe0
ffffffe0
e00000e0
e00000e0
e00000e0
ENDCHAR
STARTCHAR OverBracket2
ENCODING 113
SWIDTH 1438 0
DWIDTH 46 0
BBX 46 6 0 0
BITMAP
fffffffffffc
fffffffffffc
fffffffffffc
e0000000001c
e0000000001c
e0000000001c
ENDCHAR
STARTCHAR OverBracket3
ENCODING 114
SWIDTH 2038 0
DWIDTH 65 0
BBX 65 6 0 0
BITMAP
ffffffffffffffff80
ffffffffffffffff80
ffffffffffffffff80
e00000000000000380
e00000000000000380
e00000000000000380
ENDCHAR
STARTCHAR OverBracket4
ENCODING 115
SWIDTH 2638 0
DWIDTH 84 0
BBX 84 6 0 0
BITMAP
fffffffffffffffffffff0
fffffffffffffffffffff0
fffffffffffffffffffff0
e000000000000000000070
e000000000000000000070
e000000000000000000070
ENDCHAR
STARTCHAR OverBracketExt1
ENCODING 116
SWIDTH 300 0
DWIDTH 10 0
BBX 10 6 0 0
BITMAP
ffc0
ffc0
ffc0
e000
e000
e000
ENDCHAR
STARTCHAR OverBracketExt2
ENCODING 117
SWIDTH 300 0
DWIDTH 10 0
BBX 10 3 0 3
BITMAP
ffc0
ffc0
ffc0
ENDCHAR
STARTCHAR OverBracketExt3
ENCODING 118
SWIDTH 300 0
DWIDTH 10 0
BBX 10 6 0 0
BITMAP
ffc0
ffc0
ffc0
01c0
01c0
01c0
ENDCHAR
STARTCHAR ShortUpArrow
ENCODING 119
SWIDTH 600 0
DWIDTH 19 0
BBX 14 17 3 0
BITMAP
0200
0700
0f80
1fc0
3fe0
7ff0
f77c
6738
4710
0700
0700
0700
0700
0700
0700
0700
0700
ENDCHAR
STARTCHAR ShortDownArrow
ENCODING 120
SWIDTH 600 0
DWIDTH 19 0
BBX 14 17 3 0
BITMAP
0700
0700
0700
0700
0700
0700
0700
0700
4710
6738
f77c
7ff0
3fe0
1fc0
0f80
0700
0200
ENDCHAR
STARTCHAR ShortLArrow
ENCODING 121
SWIDTH 600 0
DWIDTH 19 0
BBX 17 14 1 0
BITMAP
020000
078000
0f0000
1e0000
3c0000
7fff80
ffff80
7fff80
3c0000
1e0000
0f0000
078000
030000
020000
ENDCHAR
STARTCHAR ShortRArrow
ENCODING 122
SWIDTH 600 0
DWIDTH 19 0
BBX 17 14 1 0
BITMAP
002000
00f000
007800
003c00
001e00
ffff00
ffff80
ffff00
001e00
003c00
007800
00f000
006000
002000
ENDCHAR
STARTCHAR LArrowBar
ENCODING 123
SWIDTH 807 0
DWIDTH 26 0
BBX 24 14 1 0
BITMAP
004000
e0f000
e1e000
e3c000
e78000
efffff
ffffff
efffff
e78000
e3c000
e1e000
e0f000
e0e000
004000
ENDCHAR
STARTCHAR Dash
ENCODING 124
SWIDTH 600 0
DWIDTH 19 0
BBX 10 3 5 6
BITMAP
ffc0
ffc0
ffc0
ENDCHAR
STARTCHAR LongDash
ENCODING 125
SWIDTH 600 0
DWIDTH 19 0
BBX 16 3 2 6
BITMAP
ffff
ffff
ffff
ENDCHAR
STARTCHAR DivisionBarExtens
ENCODING 126
SWIDTH 600 0
DWIDTH 19 0
BBX 20 3 0 6
BITMAP
fffff0
fffff0
fffff0
ENDCHAR
STARTCHAR DEL
ENCODING 127
SWIDTH 263 0
DWIDTH 8 0
BBX 0 0 0 0
BITMAP
ENDCHAR
STARTCHAR UnderBracket1
ENCODING 128
SWIDTH 838 0
DWIDTH 27 0
BBX 27 6 0 0
BITMAP
e00000e0
e00000e0
e00000e0
ffffffe0
ffffffe0
ffffffe0
ENDCHAR
STARTCHAR UnderBracket2
ENCODING 129
SWIDTH 1438 0
DWIDTH 46 0
BBX 46 6 0 0
BITMAP
e0000000001c
e0000000001c
e0000000001c
fffffffffffc
fffffffffffc
fffffffffffc
ENDCHAR
STARTCHAR UnderBracket3
ENCODING 130
SWIDTH 2038 0
DWIDTH 65 0
BBX 65 6 0 0
BITMAP
e00000000000000380
e00000000000000380
e00000000000000380
ffffffffffffffff80
ffffffffffffffff80
ffffffffffffffff80
ENDCHAR
STARTCHAR UnderBracket4
ENCODING 131
SWIDTH 2638 0
DWIDTH 84 0
BBX 84 6 0 0
BITMAP
e000000000000000000070
e000000000000000000070
e000000000000000000070
fffffffffffffffffffff0
fffffffffffffffffffff0
fffffffffffffffffffff0
ENDCHAR
STARTCHAR UnderBracketExt1
ENCODING 132
SWIDTH 300 0
DWIDTH 10 0
BBX 10 6 0 0
BITMAP
e000
e000
e000
ffc0
ffc0
ffc0
ENDCHAR
STARTCHAR UnderBracketExt2
ENCODING 133
SWIDTH 300 0
DWIDTH 10 0
BBX 10 3 0 0
BITMAP
ffc0
ffc0
ffc0
ENDCHAR
STARTCHAR UnderBracketExt3
ENCODING 134
SWIDTH 300 0
DWIDTH 10 0
BBX 10 6 0 0
BITMAP
01c0
01c0
01c0
ffc0
ffc0
ffc0
ENDCHAR
STARTCHAR LowerLeftArrow
ENCODING 135
SWIDTH 600 0
DWIDTH 19 0
BBX 16 15 2 0
BITMAP
0004
000f
001e
003c
0078
e0f0
e1e0
e3c0
e780
ef00
fe00
fc00
ffc0
ffc0
ffc0
ENDCHAR
STARTCHAR UpperLeftArrow
ENCODING 136
SWIDTH 600 0
DWIDTH 19 0
BBX 16 15 2 0
BITMAP
ffc0
ffc0
ffc0
fc00
fe00
ef00
e780
e3c0
e1e0
e0f0
0078
003c
001e
000f
0004
ENDCHAR
STARTCHAR UpperRightArrow
ENCODING 137
SWIDTH 600 0
DWIDTH 19 0
BBX 15 15 2 0
BITMAP
07fe
07fe
07fe
003e
007e
00ee
01ce
038e
070e
0e0e
1c00
3800
7000
e000
4000
ENDCHAR
STARTCHAR LowerRightArrow
ENCODING 138
SWIDTH 600 0
DWIDTH 19 0
BBX 15 15 2 0
BITMAP
4000
e000
7000
3800
1c00
0e0e
070e
038e
01ce
00ee
007e
003e
07fe
07fe
07fe
ENDCHAR
STARTCHAR LongLowerLeftArrow
ENCODING 139
SWIDTH 1056 0
DWIDTH 34 0
BBX 30 30 2 -5
BITMAP
00000010
0000003c
00000078
000000f0
000001e0
000003c0
00000780
00000f00
00001e00
00003c00
00007800
0000f000
0001e000
0003c000
00038000
00070000
000e0000
001c0000
00380000
00700000
e0e00000
e1c00000
e3800000
e7000000
ee000000
fc000000
f8000000
ffc00000
ffc00000
ffc00000
ENDCHAR
STARTCHAR LongUpperLeftArrow
ENCODING 140
SWIDTH 1056 0
DWIDTH 34 0
BBX 30 30 2 -5
BITMAP
ffc00000
ffc00000
ffc00000
f8000000
fc000000
ee000000
e7000000
e3800000
e1c00000
e0e00000
00700000
00380000
001c0000
000e0000
00070000
00038000
0003c000
0001e000
0000f000
00007800
00003c00
00001e00
00000f00
00000780
000003c0
000001e0
000000f0
00000078
0000003c
00000010
ENDCHAR
STARTCHAR LongUpperRightArrow
ENCODING 141
SWIDTH 1056 0
DWIDTH 34 0
BBX 30 30 2 -5
BITMAP
00000ffc
00000ffc
00000ffc
0000007c
000000fc
000001dc
0000039c
0000071c
00000e1c
00001c1c
00003800
00007000
0000e000
0001c000
00038000
00070000
000f0000
001e0000
003c0000
00780000
00f00000
01e00000
03c00000
07800000
0f000000
1e000000
3c000000
78000000
f0000000
20000000
ENDCHAR
STARTCHAR LongLowerRightArrow
ENCODING 142
SWIDTH 1056 0
DWIDTH 34 0
BBX 30 30 2 -5
BITMAP
20000000
f0000000
78000000
3c000000
1e000000
0f000000
07800000
03c00000
01e00000
00f00000
00780000
003c0000
001e0000
000f0000
00070000
00038000
0001c000
0000e000
00007000
00003800
00001c1c
00000e1c
0000071c
0000039c
000001dc
000000fc
0000007c
00000ffc
00000ffc
00000ffc
ENDCHAR
STARTCHAR Arrowhead
ENCODING 143
SWIDTH 600 0
DWIDTH 19 0
BBX 10 10 5 0
BITMAP
e000
e000
e000
e000
e000
e000
f000
ffc0
ffc0
ffc0
ENDCHAR
STARTCHAR OverParen1
ENCODING 144
SWIDTH 838 0
DWIDTH 27 0
BBX 27 7 0 0
BITMAP
007fc000
07fffc00
1fffff00
7f803fc0
fc0007e0
e00000e0
80000020
ENDCHAR
STARTCHAR OverParen2
ENCODING 145
SWIDTH 1438 0
DWIDTH 46 0
BBX 46 7 0 0
BITMAP
007ffffff800
07ffffffff80
1fffffffffe0
7fc000000ff8
fc00000000fc
e0000000001c
800000000004
ENDCHAR
STARTCHAR OverParen3
ENCODING 146
SWIDTH 2038 0
DWIDTH 65 0
BBX 66 7 0 0
BITMAP
007fffffffffff8000
03fffffffffffff000
1ffffffffffffffe00
7fc00000000000ff80
fc0000000000000fc0
e000000000000001c0
800000000000000040
ENDCHAR
STARTCHAR OverParen4
ENCODING 147
SWIDTH 2638 0
DWIDTH 84 0
BBX 85 7 0 0
BITMAP
007ffffffffffffffff000
07ffffffffffffffffff00
1fffffffffffffffffffc0
7fc0000000000000001ff0
fc000000000000000001f8
e000000000000000000038
8000000000000000000008
ENDCHAR
STARTCHAR OverParenExt1
ENCODING 148
SWIDTH 600 0
DWIDTH 19 0
BBX 20 7 0 0
BITMAP
007ff0
07fff0
1ffff0
7f8000
fc0000
e00000
800000
ENDCHAR
STARTCHAR OverParenExt2
ENCODING 149
SWIDTH 300 0
DWIDTH 10 0
BBX 10 3 0 4
BITMAP
ffc0
ffc0
ffc0
ENDCHAR
STARTCHAR OverParenExt3
ENCODING 150
SWIDTH 600 0
DWIDTH 19 0
BBX 20 7 0 0
BITMAP
ffe000
fffe00
ffff80
001fe0
0003f0
000070
000010
ENDCHAR
STARTCHAR OverBrace1
ENCODING 151
SWIDTH 838 0
DWIDTH 27 0
BBX 27 7 0 0
BITMAP
000e0000
000e0000
1fffff00
7fffffc0
7ffbffc0
f00001e0
e00000e0
ENDCHAR
STARTCHAR OverBrace2
ENCODING 152
SWIDTH 1438 0
DWIDTH 46 0
BBX 46 7 0 0
BITMAP
000007000000
00000f800000
0fffffffffc0
3ffffffffff0
7ffff8fffff8
f0000000003c
e0000000001c
ENDCHAR
STARTCHAR OverBrace3
ENCODING 153
SWIDTH 2038 0
DWIDTH 65 0
BBX 65 7 0 0
BITMAP
00000001c000000000
00000003e000000000
0ffffffffffffff800
3ffffffffffffffe00
7ffffffe3fffffff00
f00000000000000780
e00000000000000380
ENDCHAR
STARTCHAR OverBrace4
ENCODING 154
SWIDTH 2638 0
DWIDTH 84 0
BBX 84 7 0 0
BITMAP
0000000000700000000000
0000000000f80000000000
0fffffffffffffffffff00
3fffffffffffffffffffc0
7fffffffff8fffffffffe0
f0000000000000000000f0
e000000000000000000070
ENDCHAR
STARTCHAR OverBraceExt1
ENCODING 155
SWIDTH 300 0
DWIDTH 10 0
BBX 10 5 0 0
BITMAP
1fc0
7fc0
ffc0
f000
e000
ENDCHAR
STARTCHAR OverBraceExt2
ENCODING 156
SWIDTH 300 0
DWIDTH 10 0
BBX 10 3 0 2
BITMAP
ffc0
ffc0
ffc0
ENDCHAR
STARTCHAR OverBraceExt3
ENCODING 157
SWIDTH 300 0
DWIDTH 10 0
BBX 10 5 0 2
BITMAP
1c00
1c00
ffc0
ffc0
f7c0
ENDCHAR
STARTCHAR OverBraceExt4
ENCODING 158
SWIDTH 300 0
DWIDTH 10 0
BBX 10 5 0 0
BITMAP
fe00
ff80
ffc0
03c0
01c0
ENDCHAR
STARTCHAR AngleArrowExtension45
ENCODING 159
SWIDTH 852 0
DWIDTH 27 0
BBX 12 11 8 0
BITMAP
0040
00f0
01e0
03c0
0780
0f00
1e00
3c00
7800
f000
2000
ENDCHAR
STARTCHAR UnderParen1
ENCODING 160
SWIDTH 838 0
DWIDTH 27 0
BBX 27 7 0 0
BITMAP
80000020
e00000e0
fc0007e0
7f803fc0
1fffff00
07fffc00
007fc000
ENDCHAR
STARTCHAR UnderParen2
ENCODING 161
SWIDTH 1438 0
DWIDTH 46 0
BBX 46 7 0 0
BITMAP
800000000004
e0000000001c
fc00000000fc
7fc000000ff8
1fffffffffe0
07ffffffff80
007ffffff800
ENDCHAR
STARTCHAR UnderParen3
ENCODING 162
SWIDTH 2038 0
DWIDTH 65 0
BBX 66 7 0 0
BITMAP
800000000000000040
e000000000000001c0
fc0000000000000fc0
7fc00000000000ff80
1ffffffffffffffe00
03fffffffffffff000
007fffffffffff8000
ENDCHAR
STARTCHAR UnderParen4
ENCODING 163
SWIDTH 2638 0
DWIDTH 84 0
BBX 85 7 0 0
BITMAP
8000000000000000000008
e000000000000000000038
fc000000000000000001f8
7fc0000000000000001ff0
1fffffffffffffffffffc0
07ffffffffffffffffff00
007ffffffffffffffff000
ENDCHAR
STARTCHAR UnderParenExt1
ENCODING 164
SWIDTH 600 0
DWIDTH 19 0
BBX 20 7 0 0
BITMAP
800000
e00000
fc0000
7f8000
1ffff0
07fff0
007ff0
ENDCHAR
STARTCHAR UnderParenExt2
ENCODING 165
SWIDTH 300 0
DWIDTH 10 0
BBX 10 3 0 0
BITMAP
ffc0
ffc0
ffc0
ENDCHAR
STARTCHAR UnderParenExt3
ENCODING 166
SWIDTH 600 0
DWIDTH 19 0
BBX 20 7 0 0
BITMAP
000010
000070
0003f0
001fe0
ffff80
fffe00
ffe000
ENDCHAR
STARTCHAR UnderBrace1
ENCODING 167
SWIDTH 838 0
DWIDTH 27 0
BBX 27 7 0 -2
BITMAP
e00000e0
f00001e0
7ffbffc0
7fffffc0
1fffff00
000e0000
000e0000
ENDCHAR
STARTCHAR UnderBrace2
ENCODING 168
SWIDTH 1438 0
DWIDTH 46 0
BBX 46 7 0 -2
BITMAP
e0000000001c
f0000000003c
7ffff8fffff8
3ffffffffff0
0fffffffffc0
00000f800000
000007000000
ENDCHAR
STARTCHAR UnderBrace3
ENCODING 169
SWIDTH 2038 0
DWIDTH 65 0
BBX 65 7 0 -2
BITMAP
e00000000000000380
f00000000000000780
7ffffffe3fffffff00
3ffffffffffffffe00
0ffffffffffffff800
00000003e000000000
00000001c000000000
ENDCHAR
STARTCHAR UnderBrace4
ENCODING 170
SWIDTH 2638 0
DWIDTH 84 0
BBX 84 7 0 -2
BITMAP
e000000000000000000070
f0000000000000000000f0
7fffffffff8fffffffffe0
3fffffffffffffffffffc0
0fffffffffffffffffff00
0000000000f80000000000
0000000000700000000000
ENDCHAR
STARTCHAR UnderBraceExt1
ENCODING 171
SWIDTH 300 0
DWIDTH 10 0
BBX 10 5 0 0
BITMAP
e000
f000
ffc0
7fc0
1fc0
ENDCHAR
STARTCHAR UnderBraceExt2
ENCODING 172
SWIDTH 300 0
DWIDTH 10 0
BBX 10 3 0 0
BITMAP
ffc0
ffc0
ffc0
ENDCHAR
STARTCHAR UnderBraceExt3
ENCODING 173
SWIDTH 300 0
DWIDTH 10 0
BBX 10 5 0 -2
BITMAP
f7c0
ffc0
ffc0
1c00
1c00
ENDCHAR
STARTCHAR UnderBraceExt4
ENCODING 174
SWIDTH 300 0
DWIDTH 10 0
BBX 10 5 0 0
BITMAP
01c0
03c0
ffc0
ff80
fe00
ENDCHAR
STARTCHAR AngleArrowExtension135
ENCODING 175
SWIDTH 852 0
DWIDTH 27 0
BBX 12 11 8 0
BITMAP
2000
f000
7800
3c00
1e00
0f00
0780
03c0
01e0
00f0
0040
ENDCHAR
STARTCHAR OverWedge1
ENCODING 176
SWIDTH 838 0
DWIDTH 27 0
BBX 27 7 0 0
BITMAP
000e0000
007fc000
03fff800
1fe0ff00
ff001fe0
f80003e0
c0000060
ENDCHAR
STARTCHAR OverWedge2
ENCODING 177
SWIDTH 1438 0
DWIDTH 46 0
BBX 46 7 0 0
BITMAP
00000fc00000
0001fffe0000
003ffffff000
07ffc00fff80
fff800007ffc
ff00000003fc
e0000000001c
ENDCHAR
STARTCHAR OverWedge3
ENCODING 178
SWIDTH 2038 0
DWIDTH 65 0
BBX 66 7 0 0
BITMAP
0000000ffc00000000
000000ffffc0000000
00007fffffff800000
003fffe001ffff0000
3ffff8000007ffff00
fff80000000007ffc0
f000000000000003c0
ENDCHAR
STARTCHAR OverWedge4
ENCODING 179
SWIDTH 2638 0
DWIDTH 84 0
BBX 85 7 0 0
BITMAP
000000000fff8000000000
00000001fffffc00000000
000003fffffffffe000000
0007ffffe0003fffff0000
1fffffe00000003fffffc0
ffff00000000000007fff8
fc000000000000000001f8
ENDCHAR
STARTCHAR Ellipsis
ENCODING 180
SWIDTH 600 0
DWIDTH 19 0
BBX 18 5 1 0
BITMAP
71c380
fbe7c0
fbe7c0
fbe7c0
71c380
ENDCHAR
STARTCHAR CenterEllipsis
ENCODING 181
SWIDTH 600 0
DWIDTH 19 0
BBX 18 5 1 4
BITMAP
71c380
fbe7c0
fbe7c0
fbe7c0
71c380
ENDCHAR
STARTCHAR VertEllipsis
ENCODING 182
SWIDTH 600 0
DWIDTH 19 0
BBX 5 18 7 -1
BITMAP
70
f8
f8
f8
70
00
00
70
f8
f8
f8
70
00
70
f8
f8
f8
70
ENDCHAR
STARTCHAR DiagEllipsis
ENCODING 183
SWIDTH 600 0
DWIDTH 19 0
BBX 18 18 1 -1
BITMAP
000380
0007c0
0007c0
0007c0
000380
000000
000000
01c000
03e000
03e000
03e000
01c000
000000
700000
f80000
f80000
f80000
700000
ENDCHAR
STARTCHAR BackDiagEllipsis
ENCODING 184
SWIDTH 600 0
DWIDTH 19 0
BBX 18 18 1 -1
BITMAP
700000
f80000
f80000
f80000
700000
000000
000000
01c000
03e000
03e000
03e000
01c000
000000
000380
0007c0
0007c0
0007c0
000380
ENDCHAR
STARTCHAR Ellipsis2
ENCODING 185
SWIDTH 995 0
DWIDTH 32 0
BBX 26 5 3 0
BITMAP
700e0380
f81f07c0
f81f07c0
f81f07c0
700e0380
ENDCHAR
STARTCHAR CenterEllipsis2
ENCODING 186
SWIDTH 995 0
DWIDTH 32 0
BBX 26 5 3 4
BITMAP
700e0380
f81f07c0
f81f07c0
f81f07c0
700e0380
ENDCHAR
STARTCHAR VertEllipsis2
ENCODING 187
SWIDTH 600 0
DWIDTH 19 0
BBX 5 27 7 -1
BITMAP
70
f8
f8
f8
70
00
00
00
00
00
00
70
f8
f8
f8
70
00
00
00
00
00
00
70
f8
f8
f8
70
ENDCHAR
STARTCHAR Dot
ENCODING 188
SWIDTH 332 0
DWIDTH 11 0
BBX 5 5 3 0
BITMAP
70
f8
f8
f8
70
ENDCHAR
STARTCHAR CenterDot
ENCODING 189
SWIDTH 332 0
DWIDTH 11 0
BBX 5 5 3 4
BITMAP
70
f8
f8
f8
70
ENDCHAR
STARTCHAR BackPrime
ENCODING 190
SWIDTH 411 0
DWIDTH 13 0
BBX 10 10 2 2
BITMAP
f800
7c00
3c00
1e00
1e00
0f00
0700
0780
0380
01c0
ENDCHAR
STARTCHAR DblBackPrime
ENCODING 191
SWIDTH 649 0
DWIDTH 21 0
BBX 17 10 2 2
BITMAP
f8f800
7c7800
3c7800
3c3c00
1e1c00
0e1e00
070e00
070700
038700
018380
ENDCHAR
STARTCHAR UnderVee1
ENCODING 192
SWIDTH 838 0
DWIDTH 27 0
BBX 27 7 0 0
BITMAP
c0000060
f80003e0
ff001fe0
1fe0ff00
03fff800
007fc000
000e0000
ENDCHAR
STARTCHAR UnderVee2
ENCODING 193
SWIDTH 1438 0
DWIDTH 46 0
BBX 46 7 0 0
BITMAP
e0000000001c
ff00000003fc
fff800007ffc
07ffc00fff80
003ffffff000
0001fffe0000
00000fc00000
ENDCHAR
STARTCHAR UnderVee3
ENCODING 194
SWIDTH 2038 0
DWIDTH 65 0
BBX 66 7 0 0
BITMAP
f000000000000003c0
fff80000000007ffc0
3ffff8000007ffff00
003fffe001ffff0000
00007fffffff800000
000000ffffc0000000
0000000ffc00000000
ENDCHAR
STARTCHAR UnderVee4
ENCODING 195
SWIDTH 2638 0
DWIDTH 84 0
BBX 85 7 0 0
BITMAP
fc000000000000000001f8
ffff00000000000007fff8
1fffffe00000003fffffc0
0007ffffe0003fffff0000
000003fffffffffe000000
00000001fffffc00000000
000000000fff8000000000
ENDCHAR
STARTCHAR UpPointer
ENCODING 196
SWIDTH 600 0
DWIDTH 19 0
BBX 14 7 3 5
BITMAP
0100
0300
0780
0fc0
1fe0
3ff0
fffc
ENDCHAR
STARTCHAR RightPointer
ENCODING 197
SWIDTH 600 0
DWIDTH 19 0
BBX 7 14 6 1
BITMAP
80
c0
e0
e0
f0
f8
fc
fe
f8
f0
f0
e0
c0
80
ENDCHAR
STARTCHAR DownPointer
ENCODING 198
SWIDTH 600 0
DWIDTH 19 0
BBX 14 7 3 5
BITMAP
fffc
3ff0
1fe0
0fc0
0780
0300
0100
ENDCHAR
STARTCHAR LeftPointer
ENCODING 199
SWIDTH 600 0
DWIDTH 19 0
BBX 7 14 6 1
BITMAP
02
06
0e
0e
1e
3e
7e
fe
3e
1e
0e
0e
06
02
ENDCHAR
STARTCHAR UpLHookExt
ENCODING 200
SWIDTH 247 0
DWIDTH 8 0
BBX 7 9 0 6
BITMAP
f8
fc
fe
0e
0e
1e
fe
fc
f8
ENDCHAR
STARTCHAR UpRHookExt
ENCODING 201
SWIDTH 247 0
DWIDTH 8 0
BBX 7 8 1 6
BITMAP
3e
7e
fe
e0
e0
f0
7e
3e
ENDCHAR
STARTCHAR nbspace
ENCODING 202
SWIDTH 263 0
DWIDTH 8 0
BBX 0 0 0 0
BITMAP
ENDCHAR
STARTCHAR XBox
ENCODING 203
SWIDTH 600 0
DWIDTH 19 0
BBX 15 15 2 0
BITMAP
fffe
c006
a00a
9012
8822
8442
8282
8102
8282
8442
8822
9012
a00a
c006
fffe
ENDCHAR
STARTCHAR SmileyFace
ENCODING 204
SWIDTH 600 0
DWIDTH 19 0
BBX 18 20 1 -1
BITMAP
03f000
0ffc00
1c1e00
380f00
700780
700380
f77380
e771c0
e771c0
e001c0
e001c0
e001c0
ec19c0
f7fb80
73e380
700780
380f00
1e1e00
0ffc00
03f000
ENDCHAR
STARTCHAR StraightFace
ENCODING 205
SWIDTH 600 0
DWIDTH 19 0
BBX 18 20 1 -1
BITMAP
03f000
0ffc00
1c1e00
380f00
700780
700380
f77380
e771c0
e771c0
e001c0
e001c0
e001c0
eff9c0
fffb80
700380
700780
380f00
1c1e00
0ffc00
03f000
ENDCHAR
STARTCHAR FrownFace
ENCODING 206
SWIDTH 600 0
DWIDTH 19 0
BBX 18 20 1 -1
BITMAP
03f000
0ffc00
1e1e00
380f00
700780
700380
f77380
e771c0
e771c0
e001c0
e001c0
e3e1c0
e7f1c0
ee3b80
7c1b80
700780
380f00
1c1e00
0ffc00
03f000
ENDCHAR
STARTCHAR ShockFace
ENCODING 207
SWIDTH 600 0
DWIDTH 19 0
BBX 18 23 1 -1
BITMAP
108400
188c00
040000
87f040
cffcc0
7e1e80
380f00
700780
700380
e773c0
e771c0
e771c0
e001c0
e1c1c0
e3e1c0
e361c0
f36380
73e380
71c700
380f00
1e1e00
0ffc00
03f000
ENDCHAR
STARTCHAR Strike1
ENCODING 208
SWIDTH 600 0
DWIDTH 19 0
BBX 7 9 6 4
BITMAP
0e
1c
1c
38
38
38
70
70
e0
ENDCHAR
STARTCHAR Strike2
ENCODING 209
SWIDTH 601 0
DWIDTH 19 0
BBX 8 16 5 0
BITMAP
07
06
0e
0e
0c
1c
1c
1c
38
38
38
30
70
70
60
e0
ENDCHAR
STARTCHAR Strike3
ENCODING 210
SWIDTH 600 0
DWIDTH 19 0
BBX 10 22 5 -3
BITMAP
01c0
0380
0380
0380
0700
0700
0700
0700
0e00
0e00
0e00
1c00
1c00
1c00
3800
3800
3800
3800
7000
7000
7000
e000
ENDCHAR
STARTCHAR Strike4
ENCODING 211
SWIDTH 600 0
DWIDTH 19 0
BBX 11 25 4 -3
BITMAP
00e0
01c0
01c0
01c0
0380
0380
0380
0300
0700
0700
0700
0e00
0e00
0e00
1c00
1c00
1c00
1800
3800
3800
3800
7000
7000
7000
e000
ENDCHAR
STARTCHAR Strike5
ENCODING 212
SWIDTH 600 0
DWIDTH 19 0
BBX 12 29 4 -4
BITMAP
0070
00e0
00e0
00e0
01c0
01c0
01c0
01c0
0380
0380
0380
0700
0700
0700
0600
0e00
0e00
0e00
1c00
1c00
1c00
3800
3800
3800
3800
7000
7000
7000
e000
ENDCHAR
STARTCHAR Strike6
ENCODING 213
SWIDTH 600 0
DWIDTH 19 0
BBX 12 32 4 -6
BITMAP
0070
0060
00e0
00e0
00e0
01c0
01c0
01c0
0180
0380
0380
0380
0300
0700
0700
0700
0e00
0e00
0e00
0c00
1c00
1c00
1c00
1800
3800
3800
3800
7000
7000
7000
6000
e000
ENDCHAR
STARTCHAR KeyBar
ENCODING 214
SWIDTH 88 0
DWIDTH 3 0
BBX 8 5 -2 6
BITMAP
ff
ff
ff
ff
ff
ENDCHAR
STARTCHAR DownLHookExt
ENCODING 215
SWIDTH 247 0
DWIDTH 8 0
BBX 7 9 0 0
BITMAP
f8
fc
fe
0e
0e
1e
fe
fc
f8
ENDCHAR
STARTCHAR DownRHookExt
ENCODING 216
SWIDTH 247 0
DWIDTH 8 0
BBX 7 8 1 0
BITMAP
3e
7e
fe
e0
e0
f0
7e
3e
ENDCHAR
STARTCHAR Icos
ENCODING 217
SWIDTH 901 0
DWIDTH 29 0
BBX 27 24 1 -3
BITMAP
00080400
000c3800
07d7d800
04321800
06212800
0320a800
0340c800
02dfe800
03fe61c0
3cc8a040
c1289080
42190880
220d0980
140e1e60
1fffe7c0
3cfff800
03040c00
020e0c00
010b0c00
01129200
01a65200
01abde00
01f36200
00400000
ENDCHAR
STARTCHAR KernalIcon
ENCODING 218
SWIDTH 837 0
DWIDTH 27 0
BBX 25 25 1 -3
BITMAP
007f0000
0380c000
06003000
08100800
1019c400
27eec200
2224c200
43434100
43434100
82ffe080
83fb1c80
9dd28480
b1344880
8a347480
8c19ec80
8ffff080
47186100
411c6100
412a6300
21af9200
11ffe400
09408800
04003000
0380c000
007f0000
ENDCHAR
STARTCHAR LightBulb
ENCODING 219
SWIDTH 612 0
DWIDTH 20 0
BBX 18 26 1 -4
BITMAP
108400
108400
0c0800
03e000
8c1840
580c80
180600
300300
300300
300300
300300
300300
180600
180c00
0c1800
041000
063000
022000
022000
022000
000000
03e000
000000
01c000
018000
008000
ENDCHAR
STARTCHAR WarningSign
ENCODING 220
SWIDTH 660 0
DWIDTH 21 0
BBX 18 20 2 0
BITMAP
01c000
014000
036000
022000
063000
061000
05d800
0dd800
09cc00
19cc00
188600
108600
308200
308300
600300
61c180
61c180
c000c0
c000c0
7fffc0
ENDCHAR
STARTCHAR WatchIcon
ENCODING 221
SWIDTH 597 0
DWIDTH 19 0
BBX 16 25 2 -3
BITMAP
1ff0
1ff0
1ff0
1ff0
1ff0
1ff0
300c
300c
300c
c304
c304
c307
cf07
cf07
c004
c004
c004
300c
300c
1ff0
1ff0
1ff0
1ff0
1ff0
1ff0
ENDCHAR
STARTCHAR Cedilla
ENCODING 222
SWIDTH 600 0
DWIDTH 19 0
BBX 6 7 6 -7
BITMAP
18
38
3c
0c
4c
f8
f0
ENDCHAR
STARTCHAR Ogonek
ENCODING 223
SWIDTH 600 0
DWIDTH 19 0
BBX 7 6 5 -6
BITMAP
3c
70
e2
fc
f8
70
ENDCHAR
STARTCHAR AltKey
ENCODING 224
SWIDTH 1174 0
DWIDTH 38 0
BBX 33 26 2 -4
BITMAP
ffffffff80
8000000080
8000000080
8000000080
8000000080
8000000080
8000000080
806083f880
8060804080
80a0804080
80a0804080
8090804080
8110804080
8110804080
8108804080
8208804080
83f8804080
8204804080
8404804080
8404804080
8406fc4080
8000000080
8000000080
8000000080
8000000080
ffffffff80
ENDCHAR
STARTCHAR CmdKey
ENCODING 225
SWIDTH 1318 0
DWIDTH 42 0
BBX 38 26 2 -4
BITMAP
fffffffffc
8000000004
8000000004
8000000004
8000000004
8000000004
8000000004
83c6033f04
8466032184
8827072084
88250520c4
8805052044
8805052044
8804892044
8804892044
8804892044
8804d92044
8824512044
8824512084
8464512184
83c4713f04
8000000004
8000000004
8000000004
8000000004
fffffffffc
ENDCHAR
STARTCHAR CtrlKey
ENCODING 226
SWIDTH 1379 0
DWIDTH 44 0
BBX 40 26 2 -4
BITMAP
ffffffffff
8000000001
8000000001
8000000001
8000000001
8000000001
8000000001
87cfe7e201
8421043201
8821041201
8801041201
8801041201
8801042201
880107c201
8801042201
8801043201
8801041201
8821041201
8821041201
8421041201
83c10413f1
8000000001
8000000001
8000000001
8000000001
ffffffffff
ENDCHAR
STARTCHAR DelKey
ENCODING 227
SWIDTH 1143 0
DWIDTH 37 0
BBX 32 26 2 -4
BITMAP
ffffffff
80000001
80000001
80000001
80000001
80000001
80000001
87e1f881
84310081
84110081
84190081
84090081
84090081
8409f881
84090081
84090081
84090081
84190081
84110081
84310081
87c1f8f9
80000001
80000001
80000001
80000001
ffffffff
ENDCHAR
STARTCHAR EntKey
ENCODING 228
SWIDTH 1146 0
DWIDTH 37 0
BBX 33 26 2 -4
BITMAP
ffffffff80
8000000080
8000000080
8000000080
8000000080
8000000080
8000000080
87f613f880
8406104080
8405104080
8405104080
8405104080
8405904080
87e4904080
8404904080
8404d04080
8404504080
8404504080
8404704080
8404304080
87f4304080
8000000080
8000000080
8000000080
8000000080
ffffffff80
ENDCHAR
STARTCHAR EscKey
ENCODING 229
SWIDTH 1146 0
DWIDTH 37 0
BBX 33 26 2 -4
BITMAP
ffffffff80
8000000080
8000000080
8000000080
8000000080
8000000080
8000000080
87f1c1e080
8402223080
8404141080
8404040080
8406040080
8403040080
87e1840080
8400640080
8400240080
8400140080
8404140080
8404141080
8406321080
87f3c1e080
8000000080
8000000080
8000000080
8000000080
ffffffff80
ENDCHAR
STARTCHAR OptKey
ENCODING 230
SWIDTH 1187 0
DWIDTH 38 0
BBX 34 26 2 -4
BITMAP
ffffffffc0
8000000040
8000000040
8000000040
8000000040
8000000040
8000000040
83c3f7fc40
8422104040
8812084040
8812084040
8812084040
8812104040
8813e04040
8812004040
8812004040
8812004040
8812004040
8832004040
8422004040
83c2004040
8000000040
8000000040
8000000040
8000000040
ffffffffc0
ENDCHAR
STARTCHAR RetKey
ENCODING 231
SWIDTH 1174 0
DWIDTH 38 0
BBX 33 26 2 -4
BITMAP
ffffffff80
8000000080
8000000080
8000000080
8000000080
8000000080
8000000080
87e3f7f880
8432004080
8412004080
8412004080
8412004080
8422004080
87c3f04080
8422004080
8412004080
8412004080
8412004080
8412004080
8412004080
8413f04080
8000000080
8000000080
8000000080
8000000080
ffffffff80
ENDCHAR
STARTCHAR ShftKey
ENCODING 232
SWIDTH 1448 0
DWIDTH 46 0
BBX 42 26 2 -4
BITMAP
ffffffffffc0
800000000040
800000000040
800000000040
800000000040
800000000040
800000000040
834413f7fc40
822412004040
842412004040
843412004040
840412004040
820412004040
8187f3e04040
804412004040
802412004040
801412004040
841412004040
841412004040
822412004040
83c412004040
800000000040
800000000040
800000000040
800000000040
ffffffffffc0
ENDCHAR
STARTCHAR SpcKey
ENCODING 233
SWIDTH 1187 0
DWIDTH 38 0
BBX 34 26 2 -4
BITMAP
ffffffffc0
8000000040
8000000040
8000000040
8000000040
8000000040
8000000040
81c3e0f040
8222311040
84121a0840
84120a0840
84020a0040
8202120040
8183e20040
8062020040
8022020040
8012020040
8412020840
8412020840
8222011040
81c200f040
8000000040
8000000040
8000000040
8000000040
ffffffffc0
ENDCHAR
STARTCHAR TabKey
ENCODING 234
SWIDTH 1177 0
DWIDTH 38 0
BBX 34 26 2 -4
BITMAP
ffffffffc0
8000000040
8000000040
8000000040
8000000040
8000000040
8000000040
9ff183e040
8101821040
8102820840
8102c20840
8102420840
8104421040
810443f040
8104220840
8108220440
810fe20440
8108120440
8110120440
8110120840
81300bf040
8000000040
8000000040
8000000040
8000000040
ffffffffc0
ENDCHAR
STARTCHAR LKeyBracket
ENCODING 235
SWIDTH 245 0
DWIDTH 8 0
BBX 9 34 -2 -9
BITMAP
0f80
0800
0800
0800
0800
0800
0800
0800
0800
0800
0800
0800
0800
0800
0800
f800
f800
f800
f800
f800
0800
0800
0800
0800
0800
0800
0800
0800
0800
0800
0800
0800
0800
0f80
ENDCHAR
STARTCHAR RKeyBracket
ENCODING 236
SWIDTH 245 0
DWIDTH 8 0
BBX 5 34 1 -9
BITMAP
f8
08
08
08
08
08
08
08
08
08
08
08
08
08
08
08
08
08
08
08
08
08
08
08
08
08
08
08
08
08
08
08
08
f8
ENDCHAR
STARTCHAR CloverLeaf
ENCODING 237
SWIDTH 600 0
DWIDTH 19 0
BBX 18 18 1 0
BITMAP
380f00
4c1880
841040
841040
841040
4410c0
7fff80
041000
041000
041000
041000
041000
7fff80
c410c0
841040
841040
4c1880
780f00
ENDCHAR
STARTCHAR DottedSquare
ENCODING 238
SWIDTH 764 0
DWIDTH 24 0
BBX 21 22 2 0
BITMAP
f8e1f8
800008
800008
800008
800008
000000
000000
000000
000000
000000
800008
800008
800008
800008
000000
000000
000000
800008
800008
800008
800008
f8e1f8
ENDCHAR
STARTCHAR RoundSpaceIndicator
ENCODING 239
SWIDTH 250 0
DWIDTH 8 0
BBX 7 4 0 -4
BITMAP
c6
c6
7c
38
ENDCHAR
STARTCHAR CommandKey
ENCODING 240
SWIDTH 2643 0
DWIDTH 85 0
BBX 80 26 2 -4
BITMAP
ffffffffffffffffffff
80000000000000000001
80000000000000000001
80000000000000000001
80000000000000000001
80000000000000000001
80000000000000000001
86433180cc06040c27e1
88241980cc060a0c2421
880409814e0e0a0a2411
880409c14a0a0a0a2411
880409414a0a110a2411
880409424a0a11092411
88040942491211092411
88040922491220892411
8804092249122089a411
8804092449323f88a411
8824093448a240c8a411
8824191448a24048e421
8462311c48a240486421
83c1e11848c2804867c1
80000000000000000001
80000000000000000001
80000000000000000001
80000000000000000001
ffffffffffffffffffff
ENDCHAR
STARTCHAR ControlKey
ENCODING 241
SWIDTH 2327 0
DWIDTH 74 0
BBX 70 26 2 -4
BITMAP
fffffffffffffffffc
800000000000000004
800000000000000004
800000000000000004
800000000000000004
800000000000000004
800000000000000004
87c3e185ff3f0f8804
84661184102198c804
882419841020904804
880409441020904804
880409441020904804
880409441021104804
88040964103e104804
880409241021104804
880409241021904804
880409341020904804
882419141020904804
882411141020904804
84423114102088c804
83c1e10c1020878fc4
800000000000000004
800000000000000004
800000000000000004
800000000000000004
fffffffffffffffffc
ENDCHAR
STARTCHAR DeleteKey
ENCODING 242
SWIDTH 1890 0
DWIDTH 60 0
BBX 56 26 2 -4
BITMAP
ffffffffffffff
80000000000001
80000000000001
80000000000001
80000000000001
80000000000001
80000000000001
87e3fa03f7fbf1
84320202008201
84120202008201
84120202008201
841a0202008201
840a0202008201
840bf203f083f1
840a0202008201
840a0202008201
841a0202008201
84120202008201
84120202008201
84320202008201
87c3fbf3f083f1
80000000000001
80000000000001
80000000000001
80000000000001
ffffffffffffff
ENDCHAR
STARTCHAR EnterKey
ENCODING 243
SWIDTH 1668 0
DWIDTH 53 0
BBX 49 26 2 -4
BITMAP
ffffffffffff80
80000000000080
80000000000080
80000000000080
80000000000080
80000000000080
80000000000080
87e617f9f9f080
84061041010880
84061041010880
84051041010880
84051041010880
84051041011880
87e49041f9e080
84049041011880
84049041010880
8404d041010880
84045041010880
84045041010880
84047041010880
87e43041f90c80
80000000000080
80000000000080
80000000000080
80000000000080
ffffffffffff80
ENDCHAR
STARTCHAR EscapeKey
ENCODING 244
SWIDTH 2000 0
DWIDTH 64 0
BBX 60 26 2 -4
BITMAP
fffffffffffffff0
8000000000000010
8000000000000010
8000000000000010
8000000000000010
8000000000000010
8000000000000010
87e7c3e0607e3f10
8404262060422010
8408241050412010
840c040090412010
8404040090412010
8406040088422010
87e18401087c3e10
8400c40108402010
8400640104402010
84002403fc402010
8408241204402010
8408241206402010
8404662402402010
87e7c3e402403f10
8000000000000010
8000000000000010
8000000000000010
8000000000000010
fffffffffffffff0
ENDCHAR
STARTCHAR OptionKey
ENCODING 245
SWIDTH 1869 0
DWIDTH 60 0
BBX 56 26 2 -4
BITMAP
ffffffffffffff
80000000000001
80000000000001
80000000000001
80000000000001
80000000000001
80000000000001
83c3f3fe878611
84221820884611
88320820902711
88120820902511
88120820902511
88121820902591
8813f020902491
88120020902491
881200209024d1
88120020902451
88120020902451
88320020906471
84620020884431
83c20020878431
80000000000001
80000000000001
80000000000001
80000000000001
ffffffffffffff
ENDCHAR
STARTCHAR ReturnKey
ENCODING 246
SWIDTH 2015 0
DWIDTH 64 0
BBX 60 26 2 -4
BITMAP
fffffffffffffff0
8000000000000010
8000000000000010
8000000000000010
8000000000000010
8000000000000010
8000000000000010
87e3f7fd04fc6110
8432004104866110
8412004104825110
8412004104825110
8412004104825110
8422004104845910
87c3f04104f84910
8422004104844910
8432004104864d10
8412004104824510
8412004104824510
8412004104824710
841200408c824310
8413f04078824310
8000000000000010
8000000000000010
8000000000000010
8000000000000010
fffffffffffffff0
ENDCHAR
STARTCHAR ShiftKey
ENCODING 247
SWIDTH 1563 0
DWIDTH 50 0
BBX 46 26 2 -4
BITMAP
fffffffffffc
800000000004
800000000004
800000000004
800000000004
800000000004
800000000004
8164093fff84
822409200804
843409200804
841409200804
840409200804
820409200804
8187f93e0804
806409200804
802409200804
801409200804
841409200804
841409200804
822409200804
81c409200804
800000000004
800000000004
800000000004
800000000004
fffffffffffc
ENDCHAR
STARTCHAR SpaceKey
ENCODING 248
SWIDTH 1699 0
DWIDTH 54 0
BBX 50 26 2 -4
BITMAP
ffffffffffffc0
80000000000040
80000000000040
80000000000040
80000000000040
80000000000040
80000000000040
83e7e0c0f8fc40
822410c1848040
84341141048040
84041121008040
86041121008040
83041221008040
8187e21100fc40
80440211008040
80240411008040
801407f1008040
84140409048040
84140409048040
86240808848040
83e40804f8fc40
80000000000040
80000000000040
80000000000040
80000000000040
ffffffffffffc0
ENDCHAR
STARTCHAR Mod1Key
ENCODING 249
SWIDTH 1543 0
DWIDTH 49 0
BBX 45 26 2 -4
BITMAP
fffffffffff8
800000000008
800000000008
800000000008
800000000008
800000000008
800000000008
8c060f0fc088
8c0610886388
8e0e20482288
8a0a20482088
8a0a20483088
8a0a20481088
891220481088
891220481088
891220481088
89b220483088
88a220482088
88a220482088
88a210886088
88e20f0f8088
800000000008
800000000008
800000000008
800000000008
fffffffffff8
ENDCHAR
STARTCHAR Mod2Key
ENCODING 250
SWIDTH 1655 0
DWIDTH 53 0
BBX 49 26 2 -4
BITMAP
ffffffffffff80
80000000000080
80000000000080
80000000000080
80000000000080
80000000000080
80000000000080
8c060f0fc0f080
8c061088611880
8e0e20c8230880
8a0a2048330880
8a0a2048100880
8a0a2048101080
89122048101080
89122048102080
89122048106080
89b22048104080
88a22048108080
88a22048218080
88a21088610080
88e20f0f83f880
80000000000080
80000000000080
80000000000080
80000000000080
ffffffffffff80
ENDCHAR
STARTCHAR RKeyBracket2
ENCODING 251
SWIDTH 245 0
DWIDTH 8 0
BBX 4 34 1 -9
BITMAP
f0
80
80
80
80
80
80
80
80
80
80
80
80
80
80
80
80
80
80
80
80
80
80
80
80
80
80
80
80
80
80
80
80
f0
ENDCHAR
STARTCHAR LUpHookExt
ENCODING 252
SWIDTH 600 0
DWIDTH 19 0
BBX 9 7 2 0
BITMAP
e380
e380
e380
f380
ff80
7f00
3e00
ENDCHAR
STARTCHAR RUpHookExt
ENCODING 253
SWIDTH 257 0
DWIDTH 8 0
BBX 9 7 2 0
BITMAP
e380
e380
e380
f380
ff80
7f00
3e00
ENDCHAR
STARTCHAR LDownHookExt
ENCODING 254
SWIDTH 257 0
DWIDTH 8 0
BBX 9 7 0 0
BITMAP
3e00
7f00
ff80
e780
e380
e380
e380
ENDCHAR
STARTCHAR RDownHookExt
ENCODING 255
SWIDTH 0 0
DWIDTH 0 0
BBX 9 7 0 0
BITMAP
3e00
7f00
ff80
e780
e380
e380
e380
ENDCHAR
ENDFONT
